<?xml version="1.0" encoding="UTF-8" standalone="no"?>
<svg xmlns="http://www.w3.org/2000/svg" width="192" height="192" viewBox="0 0 192 192">
  <path fill="#2496ED" d="M96 12c-22.8 0-43.2 8.4-59.4 22.8C20.4 49.2 12 69.6 12 96s8.4 46.8 24.6 61.2C52.8 171.6 73.2 180 96 180s43.2-8.4 59.4-22.8C171.6 142.8 180 122.4 180 96s-8.4-46.8-24.6-61.2C139.2 20.4 118.8 12 96 12zm0 24c16.8 0 31.2 6 42.6 16.8C149.4 63.6 156 78 156 96s-6.6 32.4-17.4 43.2C127.2 150 112.8 156 96 156s-31.2-6-42.6-16.8C42.6 128.4 36 114 36 96s6.6-32.4 17.4-43.2C64.8 42 79.2 36 96 36z"/>
  <path fill="#2496ED" d="M96 60c-10.8 0-20.4 4.2-27 10.8-6.6 6.6-10.8 16.2-10.8 27s4.2 20.4 10.8 27c6.6 6.6 16.2 10.8 27 10.8s20.4-4.2 27-10.8c6.6-6.6 10.8-16.2 10.8-27s-4.2-20.4-10.8-27C116.4 64.2 106.8 60 96 60zm0 24c3.6 0 6.6 1.2 9 3.6 2.4 2.4 3.6 5.4 3.6 9s-1.2 6.6-3.6 9c-2.4 2.4-5.4 3.6-9 3.6s-6.6-1.2-9-3.6c-2.4-2.4-3.6-5.4-3.6-9s1.2-6.6 3.6-9c2.4-2.4 5.4-3.6 9-3.6z"/>
</svg>
