<?xml version="1.0" encoding="UTF-8" standalone="no"?>
<svg xmlns="http://www.w3.org/2000/svg" width="192" height="192" viewBox="0 0 192 192">
  <path fill="#F7DF1E" d="M0 0h192v192H0z"/>
  <path d="M48 148.8c4.8 4.8 10.8 8.4 17.4 10.8 6.6 2.4 13.8 3.6 21 3.6 7.2 0 14.4-1.2 21-3.6 6.6-2.4 12.6-6 17.4-10.8 4.8-4.8 8.4-10.8 10.8-17.4 2.4-6.6 3.6-13.8 3.6-21V48h-24v62.4c0 7.2-2.4 13.2-6.6 17.4-4.2 4.2-10.2 6.6-17.4 6.6s-13.2-2.4-17.4-6.6c-4.2-4.2-6.6-10.2-6.6-17.4V48H36v62.4c0 7.2 1.2 14.4 3.6 21 2.4 6.6 6 12.6 10.8 17.4zm96-48c4.8 4.8 10.8 8.4 17.4 10.8 6.6 2.4 13.8 3.6 21 3.6 7.2 0 14.4-1.2 21-3.6 6.6-2.4 12.6-6 17.4-10.8 4.8-4.8 8.4-10.8 10.8-17.4 2.4-6.6 3.6-13.8 3.6-21V48h-24v62.4c0 7.2-2.4 13.2-6.6 17.4-4.2 4.2-10.2 6.6-17.4 6.6s-13.2-2.4-17.4-6.6c-4.2-4.2-6.6-10.2-6.6-17.4V48h-24v62.4c0 7.2 1.2 14.4 3.6 21 2.4 6.6 6 12.6 10.8 17.4z"/>
</svg>
