<?xml version="1.0" encoding="UTF-8" standalone="no"?>
<svg xmlns="http://www.w3.org/2000/svg" width="192" height="192" viewBox="0 0 192 192">
  <path fill="#339933" d="M96 12c-4.8 0-9.6 1.2-13.8 3.6L24 52.8c-8.4 4.8-13.8 13.8-13.8 23.4v39.6c0 9.6 5.4 18.6 13.8 23.4l58.2 37.2c8.4 4.8 18.6 4.8 27 0l58.2-37.2c8.4-4.8 13.8-13.8 13.8-23.4V76.2c0-9.6-5.4-18.6-13.8-23.4L109.8 15.6c-4.2-2.4-9-3.6-13.8-3.6zm0 24l46.4 28.8c2.4 1.2 3.6 3.6 3.6 6v57.6c0 2.4-1.2 4.8-3.6 6L96 156l-46.4-28.8c-2.4-1.2-3.6-3.6-3.6-6V70.8c0-2.4 1.2-4.8 3.6-6L96 36z"/>
</svg>
