<?xml version="1.0" encoding="UTF-8" standalone="no"?>
<svg xmlns="http://www.w3.org/2000/svg" width="192" height="192" viewBox="0 0 192 192">
  <path fill="#3776AB" d="M96 0c-22.8 0-37.2 9.6-43.2 28.8 8.4-9.6 18.3-13.2 29.7-10.8 6.5 1.6 11.1 6.3 16.3 11.5 8.4 8.4 18 18 39 18h26.4c14.4 0 26.4 12 26.4 26.4v52.8c0 14.4-12 26.4-26.4 26.4h-52.8c-14.4 0-26.4 12-26.4 26.4v52.8c0 14.4 12 26.4 26.4 26.4h52.8c14.4 0 26.4-12 26.4-26.4V96c0-14.4-12-26.4-26.4-26.4h-26.4c-20.4 0-39-16.8-39-39 0-22.8 17.6-39 39-39h26.4c22.8 0 39 17.6 39 39v26.4h26.4V39c0-22.8-17.6-39-39-39H96z"/>
</svg>
