<?xml version="1.0" encoding="UTF-8" standalone="no"?>
<svg xmlns="http://www.w3.org/2000/svg" width="192" height="192" viewBox="0 0 192 192">
  <circle cx="96" cy="96" r="24" fill="#61DAFB"/>
  <path fill="none" stroke="#61DAFB" stroke-width="8" stroke-dasharray="100" d="M96 48c-22.8 0-43.2 3.6-59.4 9.6-16.2 6-26.4 14.4-26.4 22.8 0 8.4 10.2 16.8 26.4 22.8 16.2 6 36.6 9.6 59.4 9.6s43.2-3.6 59.4-9.6c16.2-6 26.4-14.4 26.4-22.8 0-8.4-10.2-16.8-26.4-22.8C139.2 51.6 118.8 48 96 48z"/>
  <path fill="none" stroke="#61DAFB" stroke-width="8" stroke-dasharray="100" transform="rotate(60 96 96)" d="M96 48c-22.8 0-43.2 3.6-59.4 9.6-16.2 6-26.4 14.4-26.4 22.8 0 8.4 10.2 16.8 26.4 22.8 16.2 6 36.6 9.6 59.4 9.6s43.2-3.6 59.4-9.6c16.2-6 26.4-14.4 26.4-22.8 0-8.4-10.2-16.8-26.4-22.8C139.2 51.6 118.8 48 96 48z"/>
  <path fill="none" stroke="#61DAFB" stroke-width="8" stroke-dasharray="100" transform="rotate(120 96 96)" d="M96 48c-22.8 0-43.2 3.6-59.4 9.6-16.2 6-26.4 14.4-26.4 22.8 0 8.4 10.2 16.8 26.4 22.8 16.2 6 36.6 9.6 59.4 9.6s43.2-3.6 59.4-9.6c16.2-6 26.4-14.4 26.4-22.8 0-8.4-10.2-16.8-26.4-22.8C139.2 51.6 118.8 48 96 48z"/>
</svg>
